<svg width="188" height="59" viewBox="0 0 188 59" fill="none" xmlns="http://www.w3.org/2000/svg">
<path d="M6.016 30.864V41.2C6.016 42.0533 6.19733 42.6613 6.56 43.024C6.92267 43.3653 7.552 43.536 8.448 43.536H10.592V46H7.968C6.34667 46 5.13067 45.6267 4.32 44.88C3.50933 44.1333 3.104 42.9067 3.104 41.2V30.864H0.832V28.464H3.104V24.048H6.016V28.464H10.592V30.864H6.016ZM13.0323 37.168C13.0323 35.376 13.3949 33.808 14.1203 32.464C14.8456 31.0987 15.8376 30.0427 17.0963 29.296C18.3763 28.5493 19.7949 28.176 21.3523 28.176C22.8883 28.176 24.2216 28.5067 25.3523 29.168C26.4829 29.8293 27.3256 30.6613 27.8803 31.664V28.464H30.8243V46H27.8803V42.736C27.3043 43.76 26.4403 44.6133 25.2883 45.296C24.1576 45.9573 22.8349 46.288 21.3203 46.288C19.7629 46.288 18.3549 45.904 17.0963 45.136C15.8376 44.368 14.8456 43.2907 14.1203 41.904C13.3949 40.5173 13.0323 38.9387 13.0323 37.168ZM27.8803 37.2C27.8803 35.8773 27.6136 34.7253 27.0803 33.744C26.5469 32.7627 25.8216 32.016 24.9043 31.504C24.0083 30.9707 23.0163 30.704 21.9283 30.704C20.8403 30.704 19.8483 30.96 18.9523 31.472C18.0563 31.984 17.3416 32.7307 16.8083 33.712C16.2749 34.6933 16.0083 35.8453 16.0083 37.168C16.0083 38.512 16.2749 39.6853 16.8083 40.688C17.3416 41.6693 18.0563 42.4267 18.9523 42.96C19.8483 43.472 20.8403 43.728 21.9283 43.728C23.0163 43.728 24.0083 43.472 24.9043 42.96C25.8216 42.4267 26.5469 41.6693 27.0803 40.688C27.6136 39.6853 27.8803 38.5227 27.8803 37.2ZM41.9533 46.288C40.6093 46.288 39.4039 46.064 38.3373 45.616C37.2706 45.1467 36.4279 44.5067 35.8093 43.696C35.1906 42.864 34.8493 41.9147 34.7853 40.848H37.7933C37.8786 41.7227 38.2839 42.4373 39.0093 42.992C39.7559 43.5467 40.7266 43.824 41.9213 43.824C43.0306 43.824 43.9053 43.5787 44.5453 43.088C45.1853 42.5973 45.5053 41.9787 45.5053 41.232C45.5053 40.464 45.1639 39.8987 44.4813 39.536C43.7986 39.152 42.7426 38.7787 41.3133 38.416C40.0119 38.0747 38.9453 37.7333 38.1133 37.392C37.3026 37.0293 36.5986 36.5067 36.0013 35.824C35.4253 35.12 35.1373 34.2027 35.1373 33.072C35.1373 32.176 35.4039 31.3547 35.9373 30.608C36.4706 29.8613 37.2279 29.2747 38.2093 28.848C39.1906 28.4 40.3106 28.176 41.5693 28.176C43.5106 28.176 45.0786 28.6667 46.2733 29.648C47.4679 30.6293 48.1079 31.9733 48.1933 33.68H45.2813C45.2173 32.7627 44.8439 32.0267 44.1613 31.472C43.4999 30.9173 42.6039 30.64 41.4733 30.64C40.4279 30.64 39.5959 30.864 38.9773 31.312C38.3586 31.76 38.0493 32.3467 38.0493 33.072C38.0493 33.648 38.2306 34.128 38.5933 34.512C38.9773 34.8747 39.4466 35.1733 40.0013 35.408C40.5773 35.6213 41.3666 35.8667 42.3693 36.144C43.6279 36.4853 44.6519 36.8267 45.4413 37.168C46.2306 37.488 46.9026 37.9787 47.4573 38.64C48.0333 39.3013 48.3319 40.1653 48.3533 41.232C48.3533 42.192 48.0866 43.056 47.5533 43.824C47.0199 44.592 46.2626 45.2 45.2813 45.648C44.3213 46.0747 43.2119 46.288 41.9533 46.288ZM62.256 46L55.376 38.256V46H52.464V22.32H55.376V36.24L62.128 28.464H66.192L57.936 37.2L66.224 46H62.256ZM78.4048 41.36V46H75.6208C73.6368 46 72.0901 45.52 70.9808 44.56C69.8714 43.5787 69.3168 41.9893 69.3168 39.792V32.688H67.1408V28.144H69.3168V23.792H74.7888V28.144H78.3728V32.688H74.7888V39.856C74.7888 40.3893 74.9168 40.7733 75.1728 41.008C75.4288 41.2427 75.8554 41.36 76.4528 41.36H78.4048ZM86.9248 31.12C87.5648 30.1387 88.3648 29.3707 89.3248 28.816C90.2848 28.24 91.3514 27.952 92.5248 27.952V33.744H91.0208C89.6554 33.744 88.6314 34.0427 87.9488 34.64C87.2661 35.216 86.9248 36.24 86.9248 37.712V46H81.4528V28.144H86.9248V31.12ZM94.0523 37.04C94.0523 35.2053 94.3936 33.5947 95.0763 32.208C95.7803 30.8213 96.7296 29.7547 97.9243 29.008C99.1189 28.2613 100.452 27.888 101.924 27.888C103.183 27.888 104.282 28.144 105.22 28.656C106.18 29.168 106.916 29.84 107.428 30.672V28.144H112.9V46H107.428V43.472C106.895 44.304 106.148 44.976 105.188 45.488C104.25 46 103.151 46.256 101.892 46.256C100.442 46.256 99.1189 45.8827 97.9243 45.136C96.7296 44.368 95.7803 43.2907 95.0763 41.904C94.3936 40.496 94.0523 38.8747 94.0523 37.04ZM107.428 37.072C107.428 35.7067 107.044 34.6293 106.276 33.84C105.53 33.0507 104.612 32.656 103.524 32.656C102.436 32.656 101.508 33.0507 100.74 33.84C99.9936 34.608 99.6203 35.6747 99.6203 37.04C99.6203 38.4053 99.9936 39.4933 100.74 40.304C101.508 41.0933 102.436 41.488 103.524 41.488C104.612 41.488 105.53 41.0933 106.276 40.304C107.044 39.5147 107.428 38.4373 107.428 37.072ZM115.771 37.072C115.771 35.216 116.144 33.5947 116.891 32.208C117.659 30.8213 118.715 29.7547 120.059 29.008C121.424 28.2613 122.982 27.888 124.731 27.888C126.971 27.888 128.838 28.4747 130.331 29.648C131.846 30.8213 132.838 32.4747 133.307 34.608H127.483C126.992 33.2427 126.043 32.56 124.635 32.56C123.632 32.56 122.832 32.9547 122.235 33.744C121.638 34.512 121.339 35.6213 121.339 37.072C121.339 38.5227 121.638 39.6427 122.235 40.432C122.832 41.2 123.632 41.584 124.635 41.584C126.043 41.584 126.992 40.9013 127.483 39.536H133.307C132.838 41.6267 131.846 43.2693 130.331 44.464C128.816 45.6587 126.95 46.256 124.731 46.256C122.982 46.256 121.424 45.8827 120.059 45.136C118.715 44.3893 117.659 43.3227 116.891 41.936C116.144 40.5493 115.771 38.928 115.771 37.072ZM147.146 46L141.706 38.512V46H136.234V22.32H141.706V35.408L147.114 28.144H153.866L146.442 37.104L153.93 46H147.146ZM172.847 36.784C172.847 37.296 172.815 37.8293 172.751 38.384H160.367C160.453 39.4933 160.805 40.3467 161.423 40.944C162.063 41.52 162.842 41.808 163.759 41.808C165.125 41.808 166.074 41.232 166.607 40.08H172.431C172.133 41.2533 171.589 42.3093 170.799 43.248C170.031 44.1867 169.061 44.9227 167.887 45.456C166.714 45.9893 165.402 46.256 163.951 46.256C162.202 46.256 160.645 45.8827 159.279 45.136C157.914 44.3893 156.847 43.3227 156.079 41.936C155.311 40.5493 154.927 38.928 154.927 37.072C154.927 35.216 155.301 33.5947 156.047 32.208C156.815 30.8213 157.882 29.7547 159.247 29.008C160.613 28.2613 162.181 27.888 163.951 27.888C165.679 27.888 167.215 28.2507 168.559 28.976C169.903 29.7013 170.949 30.736 171.695 32.08C172.463 33.424 172.847 34.992 172.847 36.784ZM167.247 35.344C167.247 34.4053 166.927 33.6587 166.287 33.104C165.647 32.5493 164.847 32.272 163.887 32.272C162.97 32.272 162.191 32.5387 161.551 33.072C160.933 33.6053 160.549 34.3627 160.399 35.344H167.247ZM181.206 31.12C181.846 30.1387 182.646 29.3707 183.606 28.816C184.566 28.24 185.633 27.952 186.806 27.952V33.744H185.302C183.937 33.744 182.913 34.0427 182.23 34.64C181.547 35.216 181.206 36.24 181.206 37.712V46H175.734V28.144H181.206V31.12Z" fill="#F8F9FA"/>
<path d="M60.8539 22.7679C59.6961 20.7625 59.159 18.4588 59.3105 16.1482C59.4619 13.8375 60.2951 11.6237 61.7048 9.78659C63.1144 7.9495 65.0372 6.57168 67.2299 5.82735C69.4226 5.08303 71.7868 5.00563 74.0235 5.60495C76.2602 6.20427 78.269 7.4534 79.7957 9.19436C81.3225 10.9353 82.2988 13.0899 82.601 15.3857C82.9033 17.6815 82.5179 20.0154 81.4938 22.0922" stroke="url(#paint0_linear_12_232)" stroke-width="2"/>
<circle cx="77.554" cy="15.1895" r="0.880861" fill="#C4C4C4" stroke="url(#paint1_linear_12_232)"/>
<rect x="68.3483" y="0.460287" width="5.52344" height="0.920574" fill="#C4C4C4" stroke="url(#paint2_linear_12_232)" stroke-width="0.920574"/>
<defs>
<linearGradient id="paint0_linear_12_232" x1="75.8607" y1="25.3445" x2="65.1393" y2="6.77457" gradientUnits="userSpaceOnUse">
<stop stop-color="#F2918E"/>
<stop offset="1" stop-color="#EA798E"/>
</linearGradient>
<linearGradient id="paint1_linear_12_232" x1="77.554" y1="13.8086" x2="77.554" y2="16.5703" gradientUnits="userSpaceOnUse">
<stop stop-color="#F2918E"/>
<stop offset="1" stop-color="#EA798E"/>
</linearGradient>
<linearGradient id="paint2_linear_12_232" x1="71.11" y1="0" x2="71.11" y2="1.84115" gradientUnits="userSpaceOnUse">
<stop stop-color="#F2918E"/>
<stop offset="1" stop-color="#EA798E"/>
</linearGradient>
</defs>
</svg>
